<?xml version="1.0" standalone="no"?>
<!DOCTYPE svg PUBLIC "-//W3C//DTD SVG 20010904//EN"
 "http://www.w3.org/TR/2001/REC-SVG-20010904/DTD/svg10.dtd">
<svg version="1.0" xmlns="http://www.w3.org/2000/svg"
 width="900pt" height="900pt" viewBox="0 0 900 393"
 preserveAspectRatio="xMidYMid meet">
<g transform="translate(0,393) scale(0.1,-0.1)"
fill="#000000" stroke="none">
<path d="M7225 3782 c-69 -36 -76 -69 -36 -172 12 -30 24 -89 26 -130 5 -63 2
-80 -15 -107 -19 -32 -22 -33 -84 -33 -36 0 -68 -4 -71 -10 -3 -5 -26 -10 -50
-10 -24 0 -46 -4 -50 -10 -3 -5 -32 -12 -65 -16 -33 -4 -65 -13 -71 -20 -6 -8
-22 -14 -35 -14 -22 0 -70 -17 -126 -46 -14 -8 -32 -14 -38 -14 -7 0 -28 -13
-47 -30 -18 -16 -39 -30 -44 -30 -6 0 -31 -13 -56 -30 -24 -16 -50 -30 -57
-30 -7 0 -22 -13 -34 -30 -13 -16 -29 -30 -36 -30 -17 0 -209 -191 -247 -247
-17 -24 -39 -47 -49 -53 -11 -6 -20 -19 -20 -29 0 -10 -7 -24 -15 -31 -8 -7
-15 -18 -15 -25 0 -6 -9 -23 -21 -36 -12 -13 -34 -51 -50 -84 -17 -33 -33 -67
-38 -75 -31 -59 -41 -84 -41 -103 0 -12 -7 -35 -15 -51 -8 -15 -15 -38 -15
-50 0 -11 -7 -30 -15 -40 -8 -11 -15 -36 -15 -56 0 -20 -6 -42 -12 -49 -10 -9
-13 -88 -13 -326 0 -238 3 -317 13 -327 6 -6 12 -23 12 -37 0 -14 6 -43 14
-66 8 -22 24 -71 36 -109 11 -38 32 -92 45 -121 14 -29 25 -57 25 -62 0 -6 7
-16 15 -23 8 -7 15 -19 15 -27 0 -8 14 -32 30 -53 17 -21 30 -45 30 -53 0 -8
7 -20 15 -27 8 -7 15 -17 15 -22 0 -38 360 -398 398 -398 5 0 24 -13 42 -30
18 -16 38 -30 45 -30 8 0 16 -4 19 -8 5 -9 131 -72 191 -97 191 -79 394 -110
650 -101 87 4 164 11 169 16 6 6 24 10 40 10 17 0 65 10 106 21 41 12 96 27
121 34 26 7 57 19 70 26 13 7 31 16 39 20 8 4 52 26 98 49 45 22 82 45 82 49
0 4 10 12 23 18 50 23 337 284 337 307 0 6 19 34 43 61 24 28 47 57 50 65 4 8
16 29 27 45 11 17 22 37 26 45 3 8 10 22 15 30 8 13 16 31 50 105 5 11 13 27
17 35 29 50 36 69 43 105 7 38 22 86 41 130 11 26 26 130 40 274 9 85 8 146 0
235 -15 161 -26 234 -39 276 -6 19 -18 58 -27 85 -9 28 -16 60 -16 71 0 12 -7
27 -15 34 -8 7 -15 19 -15 28 0 19 -38 100 -51 108 -5 3 -9 16 -9 29 0 13 -20
53 -45 89 -25 37 -45 69 -45 72 0 6 -40 63 -58 83 -8 8 -24 30 -37 50 -28 45
-196 211 -249 246 -21 14 -45 33 -53 41 -8 8 -21 14 -29 14 -8 0 -17 6 -20 14
-3 7 -24 22 -47 32 -23 10 -46 24 -50 31 -4 7 -16 13 -26 13 -10 0 -24 7 -31
15 -7 8 -21 15 -31 15 -10 0 -20 4 -24 9 -23 39 -244 99 -473 130 -35 5 -68
13 -74 19 -6 6 -8 57 -6 127 3 101 6 118 22 131 15 11 20 27 20 70 1 52 -1 57
-34 84 -39 33 -70 36 -115 12z m240 -572 c62 -17 171 -40 187 -40 10 0 34 -7
55 -16 21 -9 54 -24 73 -32 19 -8 48 -21 63 -28 16 -8 34 -14 42 -14 7 0 18
-7 25 -15 7 -8 21 -15 31 -15 10 0 22 -6 26 -13 4 -7 25 -21 46 -32 21 -11 50
-31 65 -46 15 -14 54 -46 87 -71 64 -48 175 -160 175 -176 0 -5 10 -20 23 -33
35 -39 87 -106 87 -114 0 -4 14 -24 30 -45 17 -21 30 -44 30 -51 0 -8 7 -23
15 -33 8 -11 15 -27 15 -37 0 -9 7 -22 15 -29 8 -7 15 -23 15 -35 0 -12 7 -28
15 -35 8 -7 15 -20 15 -29 0 -9 6 -36 14 -61 33 -103 46 -159 46 -196 1 -21 7
-50 15 -64 21 -36 21 -354 0 -390 -8 -14 -15 -47 -15 -75 0 -27 -7 -59 -15
-69 -8 -11 -15 -36 -15 -55 0 -20 -7 -49 -15 -65 -8 -15 -15 -35 -15 -42 0 -8
-4 -22 -9 -32 -6 -9 -19 -37 -30 -62 -55 -125 -79 -171 -98 -183 -7 -4 -13
-17 -13 -27 0 -11 -13 -33 -30 -50 -16 -17 -30 -34 -30 -39 0 -5 -34 -44 -75
-87 -41 -43 -78 -87 -81 -96 -3 -9 -13 -20 -23 -23 -10 -3 -31 -19 -47 -35
-16 -16 -33 -30 -38 -30 -4 0 -25 -14 -46 -30 -21 -17 -41 -30 -46 -30 -4 0
-15 -6 -23 -14 -9 -8 -47 -31 -86 -51 -38 -19 -72 -39 -75 -43 -11 -15 -73
-42 -96 -42 -14 0 -35 -5 -47 -12 -28 -14 -80 -26 -182 -42 -44 -6 -90 -17
-102 -24 -33 -18 -283 -17 -309 3 -10 8 -35 15 -54 15 -19 0 -53 5 -75 11 -22
6 -62 14 -89 19 -27 5 -54 14 -60 20 -5 5 -21 10 -34 10 -13 0 -38 11 -55 24
-18 14 -44 28 -60 31 -37 10 -85 35 -128 68 -20 15 -39 27 -43 27 -8 0 -120
83 -148 109 -9 9 -42 41 -74 71 -60 56 -154 164 -154 176 0 3 -12 23 -27 43
-43 56 -123 205 -123 228 0 6 -7 16 -15 23 -8 7 -15 25 -15 40 0 15 -7 33 -15
40 -8 7 -15 24 -15 39 0 25 -18 91 -43 156 -8 19 -13 126 -15 296 -2 229 0
268 13 279 8 7 15 28 15 50 0 21 7 54 15 73 8 20 15 49 15 64 0 15 7 37 15 47
8 11 15 27 15 36 0 9 11 37 25 61 14 24 27 51 31 59 18 46 60 122 76 136 10
10 18 23 18 29 0 7 7 18 16 26 8 7 31 36 51 66 41 62 254 265 316 301 23 14
55 36 70 49 16 13 37 23 47 23 10 0 22 4 25 10 7 11 92 50 110 50 7 0 18 7 25
15 7 8 23 15 37 15 13 0 34 5 46 12 12 6 40 15 62 19 22 4 77 17 122 29 168
44 182 27 183 -218 l0 -162 26 -10 c36 -14 40 -13 70 15 l27 25 -8 160 -7 159
33 31 c23 21 40 28 54 24 11 -3 34 -9 50 -14z"/>
<path d="M7235 2301 c-60 -25 -76 -89 -41 -164 l26 -54 0 -352 0 -351 33 -16
c39 -19 83 -6 96 29 5 12 5 58 0 102 -4 44 -8 190 -8 325 -1 240 0 246 24 295
39 81 30 146 -25 178 -30 18 -72 21 -105 8z"/>
<path d="M1628 3743 c-26 -7 -31 -47 -29 -223 1 -121 -2 -169 -11 -181 -15
-17 -92 -36 -193 -45 -38 -4 -79 -13 -90 -20 -11 -8 -32 -14 -47 -14 -26 0
-71 -16 -130 -46 -14 -8 -33 -14 -41 -14 -17 0 -102 -40 -172 -81 -27 -16 -58
-32 -67 -35 -10 -4 -18 -10 -18 -15 0 -6 -8 -13 -19 -17 -30 -11 -108 -79
-216 -187 -126 -126 -155 -160 -155 -177 0 -8 -13 -28 -30 -44 -16 -16 -30
-34 -30 -41 0 -6 -6 -18 -13 -25 -31 -32 -167 -337 -167 -375 0 -11 -5 -24
-10 -29 -42 -42 -61 -584 -26 -759 10 -49 22 -94 27 -99 5 -6 9 -24 9 -41 0
-17 7 -40 15 -51 8 -10 15 -26 15 -35 0 -9 7 -30 15 -45 8 -16 15 -36 15 -45
0 -9 7 -22 15 -29 8 -7 15 -19 15 -28 0 -8 6 -23 13 -31 7 -9 22 -36 32 -61
11 -25 32 -61 47 -81 15 -20 28 -42 28 -47 0 -6 6 -15 14 -19 8 -4 32 -35 54
-68 37 -56 266 -285 294 -294 7 -2 29 -16 48 -31 19 -15 42 -30 50 -33 8 -4
38 -21 65 -37 49 -29 65 -37 133 -66 61 -26 107 -46 134 -60 14 -8 37 -14 50
-14 13 0 29 -5 34 -10 6 -6 64 -15 130 -21 65 -6 133 -15 150 -20 39 -12 211
-12 218 0 3 5 56 12 118 16 62 4 126 13 142 21 16 8 41 14 56 14 15 0 33 6 39
14 6 8 26 16 44 19 40 6 100 29 119 45 9 7 55 33 104 58 49 25 94 51 99 58 6
7 17 16 25 20 31 14 56 32 80 54 88 82 206 203 232 237 57 76 178 270 178 286
0 9 7 19 15 23 8 3 15 14 15 25 0 10 14 49 30 86 17 37 30 77 30 88 0 12 7 31
15 41 8 11 15 34 15 51 0 18 7 54 15 81 8 27 15 68 15 91 0 23 5 45 10 48 6 4
10 75 10 180 0 105 -4 176 -10 180 -5 3 -10 30 -10 60 0 30 -4 56 -9 59 -5 3
-12 36 -15 73 -7 65 -21 115 -52 176 -8 16 -14 38 -14 49 0 11 -6 32 -14 46
-7 15 -23 45 -34 67 -11 22 -32 62 -46 89 -14 27 -26 53 -26 59 0 5 -20 35
-45 65 -25 30 -45 59 -45 64 0 10 -10 22 -132 152 -75 80 -186 176 -203 176
-4 0 -27 18 -51 39 -25 22 -62 48 -82 58 -20 11 -53 28 -72 38 -72 38 -89 45
-107 45 -11 0 -28 7 -39 15 -10 8 -29 15 -41 15 -12 0 -24 4 -27 9 -9 13 -224
61 -278 61 -40 0 -100 21 -115 40 -9 11 -11 60 -7 178 5 170 -3 211 -41 226
-17 6 -20 6 -47 -1z m-41 -565 c21 -19 23 -30 23 -110 0 -67 -4 -95 -17 -115
-10 -15 -17 -46 -17 -77 -1 -56 15 -80 74 -109 32 -16 33 -16 71 14 22 17 40
40 40 52 4 54 -4 94 -23 114 -24 26 -34 98 -24 168 9 57 49 88 98 75 16 -5 61
-12 101 -16 40 -4 81 -13 92 -20 11 -8 30 -14 42 -14 12 0 39 -7 60 -16 93
-40 109 -47 123 -55 8 -5 29 -15 45 -24 17 -8 53 -28 80 -45 28 -16 59 -34 70
-39 12 -5 32 -21 45 -35 14 -14 30 -26 36 -26 13 0 237 -224 243 -243 2 -6 17
-25 33 -41 15 -17 28 -38 28 -47 0 -10 7 -22 15 -26 8 -5 25 -29 39 -53 60
-110 96 -183 96 -197 0 -8 6 -27 14 -41 21 -42 38 -94 43 -132 3 -19 11 -50
20 -68 12 -27 15 -88 15 -332 1 -260 -1 -301 -16 -321 -9 -13 -16 -39 -16 -59
0 -19 -7 -44 -15 -54 -8 -11 -15 -29 -15 -40 0 -12 -7 -30 -15 -40 -8 -11 -15
-28 -15 -37 0 -20 -67 -156 -81 -165 -5 -3 -9 -13 -9 -22 0 -10 -13 -33 -30
-52 -16 -19 -29 -39 -30 -43 -1 -28 -243 -297 -267 -297 -4 0 -28 -18 -53 -40
-44 -39 -153 -110 -169 -110 -5 0 -14 -7 -21 -15 -7 -8 -20 -15 -30 -15 -10 0
-23 -7 -30 -15 -7 -8 -21 -15 -32 -15 -11 0 -32 -6 -46 -14 -41 -20 -127 -46
-155 -46 -13 0 -30 -6 -36 -14 -9 -10 -43 -16 -114 -19 -56 -3 -108 -6 -114
-6 -30 -2 -42 -2 -113 -2 -114 0 -248 15 -262 28 -6 7 -28 13 -48 13 -20 0
-45 7 -56 15 -10 8 -33 15 -50 15 -17 0 -37 7 -44 15 -7 8 -23 15 -36 15 -13
0 -46 13 -72 30 -27 16 -53 30 -58 30 -5 0 -20 10 -34 23 -14 12 -63 48 -110
79 -94 63 -218 180 -288 273 -25 33 -50 65 -56 70 -19 16 -76 114 -76 130 0 7
-5 17 -11 20 -5 4 -15 17 -20 28 -6 12 -21 42 -34 67 -13 25 -24 57 -24 71 -1
15 -8 32 -16 39 -8 7 -15 22 -15 34 0 11 -7 30 -15 40 -8 11 -15 39 -15 63 0
24 -6 56 -14 72 -22 42 -23 518 -2 546 9 11 16 41 16 67 0 26 4 49 9 52 5 4
12 25 16 49 4 23 14 51 21 62 8 11 14 27 14 37 0 28 108 242 151 299 14 19 28
39 30 45 11 30 187 218 249 266 81 63 158 118 165 118 4 0 24 14 45 30 21 17
45 30 53 30 8 0 20 7 27 15 7 8 20 15 29 15 9 0 29 7 45 15 15 8 38 15 50 15
12 0 31 7 42 15 10 8 33 15 51 15 17 0 38 6 45 14 8 7 38 16 68 20 31 4 62 11
70 16 28 18 92 11 117 -12z"/>
<path d="M1594 2242 c-42 -54 -45 -66 -24 -108 11 -21 24 -42 30 -48 6 -6 10
-143 10 -376 0 -343 1 -368 18 -383 21 -19 87 -23 98 -5 4 6 6 175 5 375 -2
230 1 369 8 376 20 25 37 93 30 121 -14 53 -46 76 -103 75 -43 0 -54 -4 -72
-27z"/>
<path d="M3308 1774 c-28 -15 -36 -38 -18 -49 19 -12 2277 -7 2300 5 23 12 24
15 10 40 -10 19 -39 19 -1138 19 -973 0 -1131 -2 -1154 -15z"/>
<path d="M4418 1643 c-16 -4 -18 -19 -18 -132 0 -133 5 -151 45 -151 39 0 43
16 38 144 -4 94 -9 124 -21 134 -9 6 -18 11 -21 11 -3 -1 -14 -3 -23 -6z"/>
</g>
</svg>
